<svg xmlns="http://www.w3.org/2000/svg" width="114" height="17"><defs><filter id="a"><feFlood flood-color="#999" flood-opacity="1" result="floodOut"/><feComposite operator="atop" in="floodOut" in2="SourceGraphic" result="compOut"/><feBlend in="compOut" in2="SourceGraphic"/></filter><filter id="b"><feFlood flood-color="#999" flood-opacity="1" result="floodOut"/><feComposite operator="atop" in="floodOut" in2="SourceGraphic" result="compOut"/><feBlend in="compOut" in2="SourceGraphic"/></filter><filter id="c"><feFlood flood-color="#999" flood-opacity="1" result="floodOut"/><feComposite operator="atop" in="floodOut" in2="SourceGraphic" result="compOut"/><feBlend in="compOut" in2="SourceGraphic"/></filter><filter id="d"><feFlood flood-color="#999" flood-opacity="1" result="floodOut"/><feComposite operator="atop" in="floodOut" in2="SourceGraphic" result="compOut"/><feBlend in="compOut" in2="SourceGraphic"/></filter></defs><path fill-rule="evenodd" d="M106.203 11.409c-.132.521-.266 1.067-.404 1.6-.137.526-.257 1.06-.456 1.543-.329.802-.748 1.575-1.296 2.202-.365.416-.288.25-.397.227-.084-.017-.092-.098-.108-.215-.089-.636-.028-1.372.005-2.087.038-.815.212-1.493.373-2.17.308-1.289.601-2.554.911-3.852.021-.086.076-.229.057-.278a3.942 3.942 0 0 1-.272-1.063 3.34 3.34 0 0 1 .088-1.214c.176-.661.58-1.248 1.202-1.461.396-.136.835-.075 1.101.082.274.161.462.417.55.778.094.385.025.845-.051 1.183-.169.761-.392 1.333-.594 2.068-.1.365-.214.739-.12 1.133.086.361.277.609.538.796.269.194.589.3 1.03.285.78-.027 1.321-.518 1.683-.98.579-.741.93-1.74 1.063-2.929.042-.383.074-.824.044-1.259-.055-.802-.31-1.448-.715-1.948a3.351 3.351 0 0 0-1.594-1.069c-.658-.212-1.569-.282-2.378-.146-1.47.249-2.508 1.072-3.119 2.208a4.374 4.374 0 0 0-.531 2.132c0 .656.165 1.165.43 1.562.085.126.209.23.291.373.117.204-.018.507-.076.728-.069.265-.077.632-.392.639-.13.002-.294-.092-.405-.152-.827-.451-1.33-1.271-1.537-2.334a5.509 5.509 0 0 1 0-2.024 5.727 5.727 0 0 1 .595-1.613 5.818 5.818 0 0 1 2.195-2.227c.708-.412 1.507-.702 2.479-.841.323-.046.657-.066 1.019-.082a6.186 6.186 0 0 1 2.745.506 5.609 5.609 0 0 1 1.891 1.341 5.05 5.05 0 0 1 1.164 2.068c.128.432.252.895.252 1.429 0 .536-.115 1.008-.195 1.481-.301 1.767-1.154 3.213-2.435 4.035-.311.2-.687.384-1.114.506-.423.122-.906.213-1.423.177a2.951 2.951 0 0 1-1.258-.36c-.343-.191-.631-.425-.836-.778z" filter="url(#a)"/><path fill-rule="evenodd" d="M78.834 10.242c-.961 1.404-2.281 3.092-3.434 4.088-.836.722-2.381 1.84-3.598 1.635-3.135-.527-2.467-8.236-4.579-9.975-.966-.281-1.431 1.206-1.962.327-.834-.697.804-1.915 1.635-2.616 1.028-.868 2.24-2.103 3.598-1.566 2.644 1.046.749 7.382 3.27 8.761 1.304-1.05 2.764-2.785 2.453-4.906-.247-.708-1.441-.483-2.126-.327-.035-3.236 6.342-5.715 6.869-1.308.286 2.698-2.126 5.887-2.126 5.887z" filter="url(#b)"/><path fill-rule="evenodd" d="M44.493 1.004v2.572s-1.892-.189-2.366.538c-.26.397-.106 1.56-.129 2.395h2.511c-.213.976-.365 1.638-.521 2.483h-2.004v7.99h-3.477V9.023h-1.48V6.509h1.463c.075-1.839.104-3.66 1.015-4.587 1.025-1.043 2.002-.918 4.988-.918z" filter="url(#c)"/><path fill-rule="evenodd" d="M16.488 3.879c-.077.601-.948 1.203-1.476 1.66.52 7.68-8.188 12.471-14.515 8.579 1.775.014 3.773-.473 4.828-1.476-1.534-.248-2.622-.944-3.044-2.306.45-.042 1.081.097 1.384-.092-1.404-.533-2.514-1.361-2.583-3.229.5.053.76.347 1.384.277C1.558 6.71.521 4.496 1.451 2.864 3.099 4.691 5.155 6.109 8.37 6.37c-.798-3.392 3.697-5.492 5.719-3.045.786-.167 1.449-.458 2.122-.738-.276.77-.836 1.256-1.384 1.753.596-.111 1.226-.189 1.661-.461z" filter="url(#d)"/></svg>